<svg width="45" height="26" viewBox="0 0 45 26" fill="none" xmlns="http://www.w3.org/2000/svg">
<rect y="2" width="45" height="24" fill="white"/>
<path d="M7.76 25V23.1C7.76 22.68 7.85333 22.3767 8.04 22.19C8.22667 21.9967 8.46333 21.8633 8.75 21.79L8.76 21.76L7.66 21.34V21.01C7.66 20.7367 7.75 20.48 7.93 20.24C8.11 19.9933 8.36667 19.7967 8.7 19.65C9.04 19.4967 9.44333 19.42 9.91 19.42C10.3167 19.42 10.6933 19.4867 11.04 19.62C11.3867 19.7467 11.6633 19.95 11.87 20.23C12.0833 20.5033 12.19 20.8633 12.19 21.31V25H11.3V21.4C11.3 20.9533 11.1633 20.6367 10.89 20.45C10.6233 20.2567 10.2933 20.16 9.9 20.16C9.49333 20.16 9.17 20.2467 8.93 20.42C8.69 20.5867 8.57 20.8 8.57 21.06L9.65 21.6L9.57 22.08C9.32333 22.08 9.10667 22.1633 8.92 22.33C8.74 22.49 8.65 22.7467 8.65 23.1V25H7.76ZM17.0161 25V21.35C17.0161 20.9167 16.9161 20.61 16.7161 20.43C16.5228 20.2433 16.1961 20.15 15.7361 20.15C15.4028 20.15 15.0828 20.1967 14.7761 20.29C14.4761 20.3767 14.1894 20.5 13.9161 20.66V19.83C14.1094 19.73 14.3694 19.6367 14.6961 19.55C15.0294 19.4633 15.4028 19.42 15.8161 19.42C16.1694 19.42 16.4761 19.46 16.7361 19.54C16.9961 19.6133 17.2094 19.7267 17.3761 19.88C17.5494 20.0333 17.6794 20.23 17.7661 20.47C17.8528 20.7033 17.8961 20.98 17.8961 21.3V25H17.0161ZM15.2961 25.1C14.7094 25.1 14.2594 24.9667 13.9461 24.7C13.6394 24.4267 13.4861 24.0367 13.4861 23.53C13.4861 22.9767 13.6861 22.55 14.0861 22.25C14.4928 21.95 15.1494 21.7733 16.0561 21.72L17.1961 21.65V22.39L16.1761 22.46C15.4961 22.5067 15.0261 22.6133 14.7661 22.78C14.5128 22.9467 14.3861 23.19 14.3861 23.51C14.3861 23.81 14.4794 24.03 14.6661 24.17C14.8594 24.31 15.1261 24.38 15.4661 24.38C15.5794 24.38 15.6828 24.3733 15.7761 24.36C15.8694 24.34 15.9594 24.3167 16.0461 24.29L16.1861 24.96C16.0594 25.0067 15.9194 25.04 15.7661 25.06C15.6194 25.0867 15.4628 25.1 15.2961 25.1ZM14.9606 18.65V18.21C15.094 18.1833 15.2306 18.1467 15.3706 18.1C15.5106 18.0467 15.6273 17.98 15.7206 17.9C15.814 17.8133 15.8606 17.71 15.8606 17.59C15.8606 17.51 15.8373 17.4433 15.7906 17.39C15.7373 17.33 15.6573 17.3 15.5506 17.3C15.484 17.3 15.4173 17.3133 15.3506 17.34C15.2773 17.3667 15.214 17.39 15.1606 17.41L14.9606 16.86C15.094 16.7533 15.244 16.6833 15.4106 16.65C15.5706 16.6167 15.7006 16.6 15.8006 16.6C16.0673 16.6 16.2773 16.6733 16.4306 16.82C16.5773 16.9667 16.6506 17.1533 16.6506 17.38C16.6506 17.5667 16.604 17.73 16.5106 17.87C16.4106 18.0033 16.2973 18.11 16.1706 18.19L16.0706 17.95H18.0606V18.65H14.9606ZM20.619 25.1C20.359 25.1 20.1057 25.0733 19.859 25.02C19.619 24.9667 19.3623 24.8667 19.089 24.72L19.369 24.04C19.5157 24.1267 19.6823 24.2033 19.869 24.27C20.0557 24.33 20.2723 24.36 20.519 24.36C21.0123 24.36 21.3957 24.18 21.669 23.82C21.949 23.4533 22.089 22.9267 22.089 22.24C22.089 21.5667 21.9457 21.0533 21.659 20.7C21.379 20.34 20.9457 20.16 20.359 20.16C20.1457 20.16 19.929 20.1833 19.709 20.23C19.489 20.2767 19.2957 20.3467 19.129 20.44V19.69C19.3223 19.59 19.5323 19.52 19.759 19.48C19.9923 19.44 20.2257 19.42 20.459 19.42C21.059 19.42 21.5457 19.54 21.919 19.78C22.2923 20.0133 22.5657 20.34 22.739 20.76C22.9123 21.18 22.999 21.6733 22.999 22.24C22.999 23.12 22.799 23.8167 22.399 24.33C22.0057 24.8433 21.4123 25.1 20.619 25.1ZM26.5509 25.09C26.0109 25.09 25.5775 25.02 25.2509 24.88C24.9309 24.74 24.6975 24.5433 24.5509 24.29C24.4109 24.0367 24.3409 23.7367 24.3409 23.39C24.3409 23.0833 24.3842 22.84 24.4709 22.66C24.5642 22.4733 24.6775 22.3367 24.8109 22.25C24.9509 22.1633 25.0942 22.1067 25.2409 22.08V22.04C25.1075 22 24.9675 21.9333 24.8209 21.84C24.6742 21.7467 24.5509 21.6167 24.4509 21.45C24.3575 21.2833 24.3109 21.0733 24.3109 20.82C24.3109 20.5867 24.3642 20.3667 24.4709 20.16C24.5775 19.9533 24.7509 19.7833 24.9909 19.65C25.2309 19.5167 25.5475 19.45 25.9409 19.45C26.1009 19.45 26.2675 19.4633 26.4409 19.49C26.6142 19.51 26.7475 19.5467 26.8409 19.6L26.6809 20.29C26.6075 20.2633 26.5109 20.24 26.3909 20.22C26.2775 20.1933 26.1575 20.18 26.0309 20.18C25.7509 20.18 25.5442 20.2467 25.4109 20.38C25.2775 20.5067 25.2109 20.6767 25.2109 20.89C25.2109 21.1233 25.2675 21.3 25.3809 21.42C25.5009 21.54 25.6509 21.6233 25.8309 21.67C26.0175 21.71 26.2109 21.73 26.4109 21.73H26.6009V22.38H26.4109C26.0109 22.38 25.7142 22.4533 25.5209 22.6C25.3342 22.74 25.2409 22.9767 25.2409 23.31C25.2409 23.5033 25.2775 23.68 25.3509 23.84C25.4309 24 25.5642 24.1267 25.7509 24.22C25.9442 24.3133 26.2109 24.36 26.5509 24.36C26.8909 24.36 27.1542 24.3133 27.3409 24.22C27.5342 24.1267 27.6709 23.9933 27.7509 23.82C27.8309 23.64 27.8709 23.4267 27.8709 23.18V19.52H28.7609V23.12C28.7609 23.82 28.5809 24.3233 28.2209 24.63C27.8675 24.9367 27.3109 25.09 26.5509 25.09ZM30.6684 20.52V18.73C30.6684 18.4767 30.6917 18.2733 30.7384 18.12C30.785 17.96 30.8484 17.83 30.9284 17.73C31.0084 17.63 31.095 17.5467 31.1884 17.48L31.1784 17.44H29.4384L29.6684 16.74H32.4884V17.44C32.2417 17.44 32.025 17.52 31.8384 17.68C31.6517 17.84 31.5584 18.1333 31.5584 18.56V20.52H30.6684ZM31.7584 25.1C31.5784 25.1 31.405 25.07 31.2384 25.01C31.0717 24.95 30.935 24.8433 30.8284 24.69C30.7217 24.5367 30.6684 24.3233 30.6684 24.05V19.52H31.5584V23.94C31.5584 24.0933 31.5917 24.2033 31.6584 24.27C31.725 24.3367 31.8317 24.37 31.9784 24.37C32.0384 24.37 32.1017 24.3633 32.1684 24.35C32.235 24.3367 32.2984 24.32 32.3584 24.3L32.4784 24.95C32.3517 25.01 32.2284 25.05 32.1084 25.07C31.9884 25.09 31.8717 25.1 31.7584 25.1ZM36.0555 25.1C35.6288 25.1 35.2588 25.0167 34.9455 24.85C34.6388 24.6767 34.4288 24.4367 34.3155 24.13H34.2755L34.2255 25H33.4955V19.52H34.3855V22.69C34.3855 23.0233 34.4421 23.3167 34.5555 23.57C34.6755 23.8167 34.8455 24.01 35.0655 24.15C35.2921 24.2833 35.5621 24.35 35.8755 24.35C36.2688 24.35 36.5621 24.2467 36.7555 24.04C36.9488 23.8333 37.0455 23.53 37.0455 23.13V19.52H37.9355V23.19C37.9355 23.63 37.8588 23.99 37.7055 24.27C37.5588 24.55 37.3455 24.76 37.0655 24.9C36.7855 25.0333 36.4488 25.1 36.0555 25.1ZM35.1462 18.65V18.21C35.2795 18.1833 35.4162 18.1467 35.5562 18.1C35.6962 18.0467 35.8128 17.98 35.9062 17.9C35.9995 17.8133 36.0462 17.71 36.0462 17.59C36.0462 17.51 36.0228 17.4433 35.9762 17.39C35.9228 17.33 35.8428 17.3 35.7362 17.3C35.6695 17.3 35.6028 17.3133 35.5362 17.34C35.4628 17.3667 35.3995 17.39 35.3462 17.41L35.1462 16.86C35.2795 16.7533 35.4295 16.6833 35.5962 16.65C35.7562 16.6167 35.8862 16.6 35.9862 16.6C36.2528 16.6 36.4628 16.6733 36.6162 16.82C36.7628 16.9667 36.8362 17.1533 36.8362 17.38C36.8362 17.5667 36.7895 17.73 36.6962 17.87C36.5962 18.0033 36.4828 18.11 36.3562 18.19L36.2562 17.95H38.2462V18.65H35.1462Z" fill="black" fill-opacity="0.2"/>
<path d="M9.2 13.912V15H7.376L3.36 9.032V13.912H4.4V15H1.04V13.912H2.048V4.088H1.04V3H4.4V4.088H3.296V8.552L7.376 3H9.104V4.088H8.032L4.704 8.76L8.176 13.912H9.2ZM12.8075 13.912H13.8475V15H10.4875V13.912H11.4955V4.088H10.4875V3H12.8075V13.912ZM14.9606 7H17.5046V8.088H16.8006L18.0966 13.896L19.5846 7H21.3446L22.8806 13.928L24.1926 8.088H23.4726V7H26.0326V8.088H25.2646L23.7446 15H22.0326L20.5126 8.072L18.9606 15H17.1686C17.1686 15 17.1313 14.8293 17.0566 14.488C16.982 14.136 16.886 13.704 16.7686 13.192C16.662 12.68 16.5446 12.1253 16.4166 11.528C16.2886 10.9307 16.166 10.376 16.0486 9.864C15.942 9.352 15.846 8.93067 15.7606 8.6L15.6486 8.088H14.9606V7ZM36.5194 6.84C37.3514 6.84 37.7674 7.25067 37.7674 8.072V13.912H38.7914V15H35.7034V13.912H36.4714V7.96L33.5434 9.784V13.912H34.3274V15H31.4634V13.912H32.2314L32.2474 13.848V7.944L29.3034 9.784V13.912H30.0874V15H26.9994V13.912H28.0074V8.072H26.9994V7H29.3034V8.52L31.7194 7C31.89 6.89333 32.082 6.84 32.2954 6.84C33.1274 6.84 33.5434 7.25067 33.5434 8.072V8.504L35.9434 7C36.114 6.89333 36.306 6.84 36.5194 6.84ZM42.5575 13.912H43.5975V15H40.2375V13.912H41.2455V8.088H40.2375V7H42.5575V13.912ZM41.9015 4.056C42.1255 4.056 42.3122 4.14133 42.4615 4.312C42.6215 4.472 42.7015 4.66933 42.7015 4.904C42.7015 5.128 42.6215 5.32 42.4615 5.48C42.3122 5.62933 42.1202 5.704 41.8855 5.704C41.6615 5.704 41.4695 5.62933 41.3095 5.48C41.1602 5.32 41.0855 5.128 41.0855 4.904C41.0855 4.66933 41.1655 4.472 41.3255 4.312C41.4855 4.14133 41.6775 4.056 41.9015 4.056Z" fill="black"/>
</svg>
